<?xml version="1.0" encoding="UTF-8" standalone="no"?>
<!DOCTYPE svg PUBLIC "-//W3C//DTD SVG 1.1//EN"
 "http://www.w3.org/Graphics/SVG/1.1/DTD/svg11.dtd">
<!-- Generated by graphviz version 2.43.0 (0)
 -->
<!-- Title: Tree Pages: 1 -->
<svg width="629pt" height="381pt"
 viewBox="0.00 0.00 628.56 380.50" xmlns="http://www.w3.org/2000/svg" xmlns:xlink="http://www.w3.org/1999/xlink">
<g id="graph0" class="graph" transform="scale(1 1) rotate(0) translate(4 376.5)">
<title>Tree</title>
<polygon fill="white" stroke="transparent" points="-4,4 -4,-376.5 624.56,-376.5 624.56,4 -4,4"/>
<!-- 0 -->
<g id="node1" class="node">
<title>0</title>
<path fill="#eda775" stroke="black" d="M536.14,-373C536.14,-373 409.14,-373 409.14,-373 403.14,-373 397.14,-367 397.14,-361 397.14,-361 397.14,-317 397.14,-317 397.14,-311 403.14,-305 409.14,-305 409.14,-305 536.14,-305 536.14,-305 542.14,-305 548.14,-311 548.14,-317 548.14,-317 548.14,-361 548.14,-361 548.14,-367 542.14,-373 536.14,-373"/>
<text text-anchor="start" x="405.14" y="-357.8" font-family="Helvetica,sans-Serif" font-size="14.00">Coupler_System ≤ 0.5</text>
<text text-anchor="start" x="438.14" y="-342.8" font-family="Helvetica,sans-Serif" font-size="14.00">mse = 0.48</text>
<text text-anchor="start" x="416.64" y="-327.8" font-family="Helvetica,sans-Serif" font-size="14.00">samples = 404710</text>
<text text-anchor="start" x="435.14" y="-312.8" font-family="Helvetica,sans-Serif" font-size="14.00">value = 10.1</text>
</g>
<!-- 1 -->
<g id="node2" class="node">
<title>1</title>
<path fill="#eb9d64" stroke="black" d="M370.64,-269C370.64,-269 258.64,-269 258.64,-269 252.64,-269 246.64,-263 246.64,-257 246.64,-257 246.64,-213 246.64,-213 246.64,-207 252.64,-201 258.64,-201 258.64,-201 370.64,-201 370.64,-201 376.64,-201 382.64,-207 382.64,-213 382.64,-213 382.64,-257 382.64,-257 382.64,-263 376.64,-269 370.64,-269"/>
<text text-anchor="start" x="254.64" y="-253.8" font-family="Helvetica,sans-Serif" font-size="14.00">YearMade ≤ 1991.5</text>
<text text-anchor="start" x="280.14" y="-238.8" font-family="Helvetica,sans-Serif" font-size="14.00">mse = 0.42</text>
<text text-anchor="start" x="258.64" y="-223.8" font-family="Helvetica,sans-Serif" font-size="14.00">samples = 360847</text>
<text text-anchor="start" x="273.64" y="-208.8" font-family="Helvetica,sans-Serif" font-size="14.00">value = 10.21</text>
</g>
<!-- 0&#45;&gt;1 -->
<g id="edge1" class="edge">
<title>0&#45;&gt;1</title>
<path fill="none" stroke="black" d="M421.35,-304.88C406.37,-295.21 389.87,-284.56 374.42,-274.59"/>
<polygon fill="black" stroke="black" points="376.26,-271.61 365.96,-269.12 372.46,-277.49 376.26,-271.61"/>
<text text-anchor="middle" x="371.22" y="-289.86" font-family="Helvetica,sans-Serif" font-size="14.00">True</text>
</g>
<!-- 2 -->
<g id="node7" class="node">
<title>2</title>
<path fill="#ffffff" stroke="black" d="M601.14,-52.5C601.14,-52.5 504.14,-52.5 504.14,-52.5 498.14,-52.5 492.14,-46.5 492.14,-40.5 492.14,-40.5 492.14,-11.5 492.14,-11.5 492.14,-5.5 498.14,0.5 504.14,0.5 504.14,0.5 601.14,0.5 601.14,0.5 607.14,0.5 613.14,-5.5 613.14,-11.5 613.14,-11.5 613.14,-40.5 613.14,-40.5 613.14,-46.5 607.14,-52.5 601.14,-52.5"/>
<text text-anchor="start" x="518.14" y="-37.3" font-family="Helvetica,sans-Serif" font-size="14.00">mse = 0.12</text>
<text text-anchor="start" x="500.14" y="-22.3" font-family="Helvetica,sans-Serif" font-size="14.00">samples = 43863</text>
<text text-anchor="start" x="515.14" y="-7.3" font-family="Helvetica,sans-Serif" font-size="14.00">value = 9.21</text>
</g>
<!-- 0&#45;&gt;2 -->
<g id="edge6" class="edge">
<title>0&#45;&gt;2</title>
<path fill="none" stroke="black" d="M481.21,-304.72C496.37,-245.76 527.82,-123.49 543.44,-62.79"/>
<polygon fill="black" stroke="black" points="546.88,-63.45 545.98,-52.9 540.1,-61.71 546.88,-63.45"/>
<text text-anchor="middle" x="558.7" y="-70.72" font-family="Helvetica,sans-Serif" font-size="14.00">False</text>
</g>
<!-- 3 -->
<g id="node3" class="node">
<title>3</title>
<path fill="#f0b48a" stroke="black" d="M123.64,-52.5C123.64,-52.5 19.64,-52.5 19.64,-52.5 13.64,-52.5 7.64,-46.5 7.64,-40.5 7.64,-40.5 7.64,-11.5 7.64,-11.5 7.64,-5.5 13.64,0.5 19.64,0.5 19.64,0.5 123.64,0.5 123.64,0.5 129.64,0.5 135.64,-5.5 135.64,-11.5 135.64,-11.5 135.64,-40.5 135.64,-40.5 135.64,-46.5 129.64,-52.5 123.64,-52.5"/>
<text text-anchor="start" x="37.14" y="-37.3" font-family="Helvetica,sans-Serif" font-size="14.00">mse = 0.37</text>
<text text-anchor="start" x="15.64" y="-22.3" font-family="Helvetica,sans-Serif" font-size="14.00">samples = 155724</text>
<text text-anchor="start" x="34.14" y="-7.3" font-family="Helvetica,sans-Serif" font-size="14.00">value = 9.97</text>
</g>
<!-- 1&#45;&gt;3 -->
<g id="edge2" class="edge">
<title>1&#45;&gt;3</title>
<path fill="none" stroke="black" d="M275.87,-200.97C230.24,-162.1 154.96,-97.97 109.66,-59.38"/>
<polygon fill="black" stroke="black" points="111.72,-56.54 101.84,-52.72 107.18,-61.87 111.72,-56.54"/>
</g>
<!-- 4 -->
<g id="node4" class="node">
<title>4</title>
<path fill="#e78a48" stroke="black" d="M366.64,-165C366.64,-165 262.64,-165 262.64,-165 256.64,-165 250.64,-159 250.64,-153 250.64,-153 250.64,-109 250.64,-109 250.64,-103 256.64,-97 262.64,-97 262.64,-97 366.64,-97 366.64,-97 372.64,-97 378.64,-103 378.64,-109 378.64,-109 378.64,-153 378.64,-153 378.64,-159 372.64,-165 366.64,-165"/>
<text text-anchor="start" x="261.14" y="-149.8" font-family="Helvetica,sans-Serif" font-size="14.00">ProductSize ≤ 4.5</text>
<text text-anchor="start" x="280.14" y="-134.8" font-family="Helvetica,sans-Serif" font-size="14.00">mse = 0.37</text>
<text text-anchor="start" x="258.64" y="-119.8" font-family="Helvetica,sans-Serif" font-size="14.00">samples = 205123</text>
<text text-anchor="start" x="277.14" y="-104.8" font-family="Helvetica,sans-Serif" font-size="14.00">value = 10.4</text>
</g>
<!-- 1&#45;&gt;4 -->
<g id="edge3" class="edge">
<title>1&#45;&gt;4</title>
<path fill="none" stroke="black" d="M314.64,-200.88C314.64,-192.78 314.64,-183.98 314.64,-175.47"/>
<polygon fill="black" stroke="black" points="318.15,-175.3 314.64,-165.3 311.15,-175.3 318.15,-175.3"/>
</g>
<!-- 5 -->
<g id="node5" class="node">
<title>5</title>
<path fill="#e58139" stroke="black" d="M287.64,-52.5C287.64,-52.5 183.64,-52.5 183.64,-52.5 177.64,-52.5 171.64,-46.5 171.64,-40.5 171.64,-40.5 171.64,-11.5 171.64,-11.5 171.64,-5.5 177.64,0.5 183.64,0.5 183.64,0.5 287.64,0.5 287.64,0.5 293.64,0.5 299.64,-5.5 299.64,-11.5 299.64,-11.5 299.64,-40.5 299.64,-40.5 299.64,-46.5 293.64,-52.5 287.64,-52.5"/>
<text text-anchor="start" x="201.14" y="-37.3" font-family="Helvetica,sans-Serif" font-size="14.00">mse = 0.31</text>
<text text-anchor="start" x="179.64" y="-22.3" font-family="Helvetica,sans-Serif" font-size="14.00">samples = 182403</text>
<text text-anchor="start" x="198.14" y="-7.3" font-family="Helvetica,sans-Serif" font-size="14.00">value = 10.5</text>
</g>
<!-- 4&#45;&gt;5 -->
<g id="edge4" class="edge">
<title>4&#45;&gt;5</title>
<path fill="none" stroke="black" d="M289.21,-96.84C280.36,-85.3 270.42,-72.33 261.52,-60.74"/>
<polygon fill="black" stroke="black" points="264.13,-58.39 255.26,-52.58 258.57,-62.65 264.13,-58.39"/>
</g>
<!-- 6 -->
<g id="node6" class="node">
<title>6</title>
<path fill="#f7d6bf" stroke="black" d="M445.14,-52.5C445.14,-52.5 348.14,-52.5 348.14,-52.5 342.14,-52.5 336.14,-46.5 336.14,-40.5 336.14,-40.5 336.14,-11.5 336.14,-11.5 336.14,-5.5 342.14,0.5 348.14,0.5 348.14,0.5 445.14,0.5 445.14,0.5 451.14,0.5 457.14,-5.5 457.14,-11.5 457.14,-11.5 457.14,-40.5 457.14,-40.5 457.14,-46.5 451.14,-52.5 445.14,-52.5"/>
<text text-anchor="start" x="362.14" y="-37.3" font-family="Helvetica,sans-Serif" font-size="14.00">mse = 0.17</text>
<text text-anchor="start" x="344.14" y="-22.3" font-family="Helvetica,sans-Serif" font-size="14.00">samples = 22720</text>
<text text-anchor="start" x="359.14" y="-7.3" font-family="Helvetica,sans-Serif" font-size="14.00">value = 9.62</text>
</g>
<!-- 4&#45;&gt;6 -->
<g id="edge5" class="edge">
<title>4&#45;&gt;6</title>
<path fill="none" stroke="black" d="M341.04,-96.84C350.23,-85.3 360.55,-72.33 369.78,-60.74"/>
<polygon fill="black" stroke="black" points="372.79,-62.58 376.28,-52.58 367.31,-58.22 372.79,-62.58"/>
</g>
</g>
</svg>
